<svg
    width="100%"
    height="100%"
    viewBox="0 0 66 30"
    fill="currentColor"
    class="text-gray-800"
    xmlns="http://www.w3.org/2000/svg"
    style="fill-rule: evenodd; clip-rule: evenodd; stroke-linejoin: round; stroke-miterlimit: 2"
>
    <g transform="matrix(3.04021,0,0,3.04021,-77.6457,-25.6284)">
      <g>
        <path
          d="M26.566,16.754C26.59,16.49 26.672,16.226 26.812,15.962C26.952,15.698 27.118,15.482 27.31,15.314C28.166,15.834 28.978,16.094 29.746,16.094C30.082,16.094 30.328,16.018 30.484,15.866C30.64,15.714 30.718,15.526 30.718,15.302C30.718,14.926 30.466,14.63 29.962,14.414L28.546,13.814C27.994,13.566 27.57,13.268 27.274,12.92C26.978,12.572 26.83,12.13 26.83,11.594C26.83,11.226 26.904,10.89 27.052,10.586C27.2,10.282 27.408,10.018 27.676,9.794C27.944,9.57 28.262,9.396 28.63,9.272C28.998,9.148 29.406,9.086 29.854,9.086C30.75,9.086 31.654,9.314 32.566,9.77C32.526,10.386 32.31,10.866 31.918,11.21C31.102,10.818 30.382,10.622 29.758,10.622C29.438,10.622 29.198,10.694 29.038,10.838C28.878,10.982 28.798,11.146 28.798,11.33C28.798,11.642 29.034,11.894 29.506,12.086L30.946,12.698C31.554,12.954 32.008,13.282 32.308,13.682C32.608,14.082 32.758,14.546 32.758,15.074C32.758,15.45 32.69,15.794 32.554,16.106C32.418,16.418 32.216,16.688 31.948,16.916C31.68,17.144 31.346,17.322 30.946,17.45C30.546,17.578 30.078,17.642 29.542,17.642C28.502,17.642 27.51,17.346 26.566,16.754Z"
          style="fill-rule: nonzero"
        />
        <path
          d="M26.239,16.724C26.227,16.847 26.286,16.967 26.391,17.032C27.391,17.659 28.441,17.971 29.542,17.971C30.116,17.971 30.618,17.9 31.046,17.763C31.492,17.62 31.863,17.42 32.161,17.166C32.469,16.905 32.7,16.595 32.856,16.237C33.009,15.885 33.087,15.498 33.087,15.074C33.087,14.471 32.914,13.941 32.571,13.484C32.241,13.044 31.744,12.677 31.075,12.395L29.63,11.781C29.479,11.719 29.356,11.652 29.266,11.576C29.18,11.503 29.127,11.424 29.127,11.33C29.127,11.236 29.176,11.156 29.258,11.082C29.368,10.983 29.538,10.951 29.758,10.951C30.341,10.951 31.013,11.14 31.776,11.506C31.895,11.563 32.036,11.544 32.135,11.457C32.59,11.058 32.848,10.505 32.894,9.791C32.903,9.659 32.832,9.535 32.713,9.475C31.752,8.995 30.799,8.757 29.854,8.757C29.368,8.757 28.925,8.825 28.525,8.96C28.116,9.098 27.763,9.292 27.465,9.541C27.161,9.796 26.925,10.096 26.756,10.442C26.587,10.789 26.501,11.173 26.501,11.594C26.501,12.217 26.679,12.728 27.024,13.133C27.347,13.513 27.808,13.843 28.411,14.114L29.833,14.716C30.182,14.866 30.389,15.041 30.389,15.302C30.389,15.432 30.345,15.542 30.255,15.63C30.148,15.734 29.975,15.765 29.746,15.765C29.031,15.765 28.278,15.517 27.481,15.033C27.358,14.958 27.201,14.972 27.093,15.066C26.873,15.259 26.682,15.505 26.522,15.808C26.36,16.113 26.266,16.419 26.239,16.724ZM26.566,16.754C26.59,16.49 26.672,16.226 26.812,15.962C26.952,15.698 27.118,15.482 27.31,15.314C28.166,15.834 28.978,16.094 29.746,16.094C30.082,16.094 30.328,16.018 30.484,15.866C30.64,15.714 30.718,15.526 30.718,15.302C30.718,14.926 30.466,14.63 29.962,14.414L28.546,13.814C27.994,13.566 27.57,13.268 27.274,12.92C26.978,12.572 26.83,12.13 26.83,11.594C26.83,11.226 26.904,10.89 27.052,10.586C27.2,10.282 27.408,10.018 27.676,9.794C27.944,9.57 28.262,9.396 28.63,9.272C28.998,9.148 29.406,9.086 29.854,9.086C30.75,9.086 31.654,9.314 32.566,9.77C32.526,10.386 32.31,10.866 31.918,11.21C31.102,10.818 30.382,10.622 29.758,10.622C29.438,10.622 29.198,10.694 29.038,10.838C28.878,10.982 28.798,11.146 28.798,11.33C28.798,11.642 29.034,11.894 29.506,12.086L30.946,12.698C31.554,12.954 32.008,13.282 32.308,13.682C32.608,14.082 32.758,14.546 32.758,15.074C32.758,15.45 32.69,15.794 32.554,16.106C32.418,16.418 32.216,16.688 31.948,16.916C31.68,17.144 31.346,17.322 30.946,17.45C30.546,17.578 30.078,17.642 29.542,17.642C28.502,17.642 27.51,17.346 26.566,16.754Z"
          style="fill: white"
        />
        <path
          d="M34.006,17.462L34.006,9.266C34.254,9.218 34.574,9.194 34.966,9.194C35.358,9.194 35.682,9.218 35.938,9.266L35.938,17.462C35.682,17.51 35.358,17.534 34.966,17.534C34.574,17.534 34.254,17.51 34.006,17.462Z"
          style="fill: white; fill-rule: nonzero"
        />
        <path
          d="M33.677,17.462C33.677,17.619 33.789,17.755 33.944,17.785C34.208,17.836 34.549,17.863 34.966,17.863C35.383,17.863 35.727,17.836 35.999,17.785C36.154,17.756 36.267,17.62 36.267,17.462L36.267,9.266C36.267,9.107 36.154,8.972 35.999,8.942C35.727,8.891 35.383,8.865 34.966,8.865C34.549,8.865 34.208,8.892 33.944,8.943C33.789,8.973 33.677,9.108 33.677,9.266L33.677,17.462ZM34.006,17.462L34.006,9.266C34.254,9.218 34.574,9.194 34.966,9.194C35.358,9.194 35.682,9.218 35.938,9.266L35.938,17.462C35.682,17.51 35.358,17.534 34.966,17.534C34.574,17.534 34.254,17.51 34.006,17.462Z"
        />
        <g transform="matrix(3.6518e-17,-0.328925,0.328925,3.6518e-17,33.7687,17.5748)">
          <rect x="1.557" y="1.54" width="0.879" height="4.266" style="fill-rule: nonzero" />
        </g>
        <g transform="matrix(3.6518e-17,-0.328925,0.328925,3.6518e-17,33.7687,17.5748)">
          <path
            d="M6.719,5.806L5.84,5.806L4.13,2.999L4.13,5.806L3.251,5.806L3.251,1.54L4.13,1.54L5.843,4.353L5.843,1.54L6.719,1.54L6.719,5.806Z"
            style="fill-rule: nonzero"
          />
        </g>
        <g transform="matrix(3.6518e-17,-0.328925,0.328925,3.6518e-17,33.7687,17.5748)">
          <path
            d="M9.063,4.748L10.03,1.54L11.008,1.54L9.523,5.806L8.606,5.806L7.127,1.54L8.102,1.54L9.063,4.748Z"
            style="fill-rule: nonzero"
          />
        </g>
        <g transform="matrix(3.6518e-17,-0.328925,0.328925,3.6518e-17,33.7687,17.5748)">
          <path
            d="M14.876,3.77C14.876,4.19 14.801,4.558 14.653,4.874C14.505,5.191 14.292,5.435 14.016,5.607C13.739,5.779 13.422,5.865 13.065,5.865C12.712,5.865 12.396,5.78 12.119,5.61C11.841,5.44 11.627,5.197 11.474,4.882C11.322,4.566 11.245,4.203 11.243,3.793L11.243,3.582C11.243,3.162 11.318,2.793 11.47,2.473C11.621,2.154 11.835,1.909 12.111,1.738C12.388,1.567 12.704,1.482 13.059,1.482C13.415,1.482 13.731,1.567 14.007,1.738C14.283,1.909 14.497,2.154 14.649,2.473C14.8,2.793 14.876,3.161 14.876,3.579L14.876,3.77ZM13.985,3.576C13.985,3.129 13.905,2.789 13.745,2.557C13.585,2.325 13.356,2.208 13.059,2.208C12.764,2.208 12.537,2.323 12.377,2.553C12.216,2.782 12.135,3.118 12.133,3.562L12.133,3.77C12.133,4.205 12.213,4.543 12.374,4.783C12.534,5.024 12.764,5.144 13.065,5.144C13.36,5.144 13.587,5.028 13.745,4.797C13.903,4.565 13.983,4.228 13.985,3.784L13.985,3.576Z"
            style="fill-rule: nonzero"
          />
        </g>
        <g transform="matrix(3.6518e-17,-0.328925,0.328925,3.6518e-17,33.7687,17.5748)">
          <rect x="15.57" y="1.54" width="0.879" height="4.266" style="fill-rule: nonzero" />
        </g>
        <g transform="matrix(3.6518e-17,-0.328925,0.328925,3.6518e-17,33.7687,17.5748)">
          <path
            d="M20.612,4.385C20.579,4.844 20.409,5.205 20.104,5.469C19.798,5.733 19.395,5.865 18.895,5.865C18.348,5.865 17.918,5.68 17.605,5.312C17.291,4.944 17.134,4.439 17.134,3.796L17.134,3.535C17.134,3.125 17.207,2.764 17.351,2.451C17.496,2.139 17.702,1.899 17.971,1.732C18.239,1.565 18.551,1.482 18.907,1.482C19.399,1.482 19.796,1.614 20.096,1.877C20.397,2.141 20.571,2.511 20.618,2.988L19.739,2.988C19.717,2.712 19.641,2.512 19.509,2.388C19.377,2.264 19.176,2.202 18.907,2.202C18.614,2.202 18.395,2.307 18.249,2.517C18.104,2.727 18.029,3.053 18.025,3.494L18.025,3.817C18.025,4.278 18.095,4.615 18.234,4.827C18.374,5.04 18.594,5.147 18.895,5.147C19.167,5.147 19.369,5.085 19.503,4.961C19.637,4.837 19.713,4.645 19.733,4.385L20.612,4.385Z"
            style="fill-rule: nonzero"
          />
        </g>
        <g transform="matrix(3.6518e-17,-0.328925,0.328925,3.6518e-17,33.7687,17.5748)">
          <path
            d="M23.755,3.957L22.068,3.957L22.068,5.1L24.048,5.1L24.048,5.806L21.189,5.806L21.189,1.54L24.043,1.54L24.043,2.252L22.068,2.252L22.068,3.269L23.755,3.269L23.755,3.957Z"
            style="fill-rule: nonzero"
          />
        </g>
        <path
          d="M37.534,17.438L38.17,9.278C38.522,9.214 38.938,9.182 39.418,9.182C39.898,9.182 40.318,9.214 40.678,9.278L41.386,12.218C41.666,13.546 41.814,14.27 41.83,14.39L41.914,14.39C41.946,14.19 42.094,13.466 42.358,12.218L43.078,9.278C43.43,9.214 43.846,9.182 44.326,9.182C44.806,9.182 45.226,9.214 45.586,9.278L46.222,17.438C45.974,17.502 45.668,17.534 45.304,17.534C44.94,17.534 44.642,17.514 44.41,17.474L44.218,14.138C44.162,12.81 44.13,11.886 44.122,11.366L44.05,11.366L42.862,16.25C42.574,16.298 42.244,16.322 41.872,16.322C41.5,16.322 41.17,16.298 40.882,16.25L39.706,11.366L39.622,11.366C39.622,12.078 39.59,13.002 39.526,14.138L39.346,17.474C39.114,17.514 38.816,17.534 38.452,17.534C38.088,17.534 37.782,17.502 37.534,17.438Z"
          style="fill-rule: nonzero"
        />
        <path
          d="M41.872,12.931L41.706,12.141L40.998,9.201C40.967,9.074 40.864,8.977 40.736,8.954C40.359,8.887 39.92,8.853 39.418,8.853C38.915,8.853 38.48,8.887 38.111,8.954C37.964,8.981 37.854,9.103 37.842,9.252L37.206,17.412C37.194,17.571 37.297,17.716 37.452,17.756C37.722,17.826 38.055,17.863 38.452,17.863C38.839,17.863 39.155,17.84 39.402,17.798C39.553,17.772 39.666,17.645 39.675,17.491L39.855,14.156C39.867,13.938 39.878,13.728 39.888,13.525L40.562,16.327C40.593,16.455 40.698,16.552 40.828,16.574C41.132,16.625 41.48,16.651 41.872,16.651C42.264,16.651 42.612,16.625 42.916,16.574C43.046,16.552 43.151,16.455 43.182,16.327L43.864,13.524C43.872,13.722 43.88,13.931 43.889,14.152L44.082,17.493C44.091,17.645 44.203,17.772 44.354,17.798C44.601,17.84 44.917,17.863 45.304,17.863C45.701,17.863 46.034,17.826 46.304,17.756C46.459,17.716 46.562,17.571 46.55,17.412L45.914,9.252C45.902,9.103 45.791,8.98 45.644,8.954C45.267,8.887 44.828,8.853 44.326,8.853C43.823,8.853 43.388,8.887 43.019,8.954C42.892,8.977 42.789,9.073 42.759,9.199L42.039,12.139L41.872,12.931ZM37.534,17.438L38.17,9.278C38.522,9.214 38.938,9.182 39.418,9.182C39.898,9.182 40.318,9.214 40.678,9.278L41.386,12.218C41.666,13.546 41.814,14.27 41.83,14.39L41.914,14.39C41.946,14.19 42.094,13.466 42.358,12.218L43.078,9.278C43.43,9.214 43.846,9.182 44.326,9.182C44.806,9.182 45.226,9.214 45.586,9.278L46.222,17.438C45.974,17.502 45.668,17.534 45.304,17.534C44.94,17.534 44.642,17.514 44.41,17.474L44.218,14.138C44.162,12.81 44.13,11.886 44.122,11.366L44.05,11.366L42.862,16.25C42.574,16.298 42.244,16.322 41.872,16.322C41.5,16.322 41.17,16.298 40.882,16.25L39.706,11.366L39.622,11.366C39.622,12.078 39.59,13.002 39.526,14.138L39.346,17.474C39.114,17.514 38.816,17.534 38.452,17.534C38.088,17.534 37.782,17.502 37.534,17.438Z"
          style="fill: white"
        />
      </g>
    </g>
</svg>

